<svg viewBox="0 0 512 512" xmlns="http://www.w3.org/2000/svg"><path d="m462 160c5.519531 0 10-4.480469 10-10s-4.480469-10-10-10-10 4.480469-10 10 4.480469 10 10 10zm0 0"/><path d="m186 100c0-22.054688-17.945312-40-40-40h-30c-5.523438 0-10 4.476562-10 10v120c0 5.523438 4.476562 10 10 10h30c22.097656 0 40-17.898438 40-40 0-11.933594-5.257812-22.65625-13.574219-29.988281 8.800781-7.773438 13.574219-18.574219 13.574219-30.011719zm-20 60c0 11.046875-8.953125 20-20 20h-20v-40h20c11.027344 0 20 8.972656 20 20zm-40-40v-40h20c11.027344 0 20 8.972656 20 20 0 11.046875-8.953125 20-20 20zm0 0"/><path d="m276 60c-5.523438 0-10 4.476562-10 10v90c0 11.027344-8.972656 20-20 20-11.046875 0-20-8.953125-20-20v-90c0-5.523438-4.476562-10-10-10s-10 4.476562-10 10v90c0 22.097656 17.898438 40 40 40 22.054688 0 40-17.945312 40-40v-90c0-5.523438-4.476562-10-10-10zm0 0"/><path d="m366 190v-56.972656l38.320312-57.480469c3.0625-4.59375 1.820313-10.804687-2.773437-13.867187s-10.804687-1.820313-13.867187 2.773437l-31.679688 47.519531-31.679688-47.519531c-3.0625-4.597656-9.273437-5.835937-13.867187-2.773437s-5.835937 9.273437-2.773437 13.867187l38.320312 57.480469v56.972656c0 5.523438 4.476562 10 10 10s10-4.476562 10-10zm0 0"/><path d="m362 0h-212c-82.710938 0-150 67.289062-150 150s67.289062 150 150 150h65.910156l-48.59375 85.039062c-2.183594 3.824219-1.609375 8.632813 1.417969 11.832032 3.03125 3.203125 7.796875 4.042968 11.738281 2.074218l25.527344-12.765624v115.820312c0 5.523438 4.476562 10 10 10h80c5.523438 0 10-4.476562 10-10v-115.820312l25.527344 12.765624c3.941406 1.96875 8.707031 1.128907 11.738281-2.074218 3.027344-3.199219 3.601563-8.003906 1.417969-11.832032l-48.59375-85.039062h65.910156c82.710938 0 150-67.289062 150-150s-67.289062-150-150-150zm-61.527344 361.054688c-3.101562-1.550782-6.78125-1.382813-9.730468.4375-2.949219 1.824218-4.742188 5.042968-4.742188 8.507812v122h-60v-122c0-3.464844-1.792969-6.683594-4.742188-8.507812-2.949218-1.820313-6.628906-1.988282-9.730468-.4375l-10.460938 5.230468 54.933594-96.132812 14.179688 24.808594 40.753906 71.324218zm61.527344-81.054688h-77.335938l-19.980468-34.960938c-1.78125-3.117187-5.09375-5.039062-8.683594-5.039062s-6.902344 1.921875-8.683594 5.039062l-19.976562 34.960938h-77.339844c-71.683594 0-130-58.316406-130-130s58.316406-130 130-130h212c71.683594 0 130 58.316406 130 130s-58.316406 130-130 130zm0 0"/><path d="m457.933594 180.007812c-5.078125-2.175781-10.953125.179688-13.128906 5.257813-14.226563 33.25-46.730469 54.734375-82.804688 54.734375-5.523438 0-10 4.476562-10 10s4.476562 10 10 10c44.09375 0 83.8125-26.246094 101.195312-66.867188 2.171876-5.074218-.183593-10.953124-5.261718-13.125zm0 0"/></svg>