<?xml version="1.0" encoding="iso-8859-1"?>
<!-- Generator: Adobe Illustrator 19.0.0, SVG Export Plug-In . SVG Version: 6.00 Build 0)  -->
<svg version="1.1" id="Capa_1" xmlns="http://www.w3.org/2000/svg" xmlns:xlink="http://www.w3.org/1999/xlink" x="0px" y="0px"
	 viewBox="0 0 512 512" style="enable-background:new 0 0 512 512;" xml:space="preserve">
<g>
	<g>
		<g>
			<path d="M350.013,213.001h39.997c11.045,0,19.998-8.953,19.998-19.998s-8.953-19.998-19.998-19.998h-19.998V20.016
				c0-11.045-8.953-19.998-19.998-19.998c-11.045,0-19.998,8.953-19.998,19.998v172.987
				C330.014,204.047,338.968,213.001,350.013,213.001z"/>
			<path d="M53.143,213.001H86.17c15.999,0,31.084-5.898,42.478-16.606c11.853-11.141,18.381-26.227,18.381-42.481v-10.536
				c0-33.22-27.301-60.246-60.858-60.246H65.848c-11.109,0-19.811-9.016-19.811-20.525V59.61c0-11.171,8.517-19.595,19.811-19.595
				h19.218c6.865,0,13.967,4.488,13.967,11.999c0,11.045,8.953,19.998,19.998,19.998c11.045,0,19.998-8.953,19.998-19.998
				c0-28.671-24.208-51.996-53.964-51.996H65.848C32.31,0.018,6.04,26.194,6.04,59.61v2.997c0,33.372,26.83,60.522,59.808,60.522
				H86.17c11.503,0,20.861,9.084,20.861,20.249v10.535c0,10.705-9.163,19.09-20.861,19.09H53.143
				c-7.371,0-13.146-5.71-13.146-12.999c0-11.045-8.953-19.998-19.998-19.998C8.953,140.007,0,148.96,0,160.006
				C0,189.227,23.84,213.001,53.143,213.001z"/>
			<path d="M452.005,213.001h39.997c11.045,0,19.998-8.953,19.998-19.998s-8.953-19.998-19.998-19.998h-19.998V20.016
				c0-11.045-8.953-19.998-19.998-19.998c-11.045,0-19.998,8.953-19.998,19.998v172.987
				C432.006,204.047,440.96,213.001,452.005,213.001z"/>
			<path d="M492.002,251.998H373.011c-11.045,0-19.998,8.953-19.998,19.998s8.953,19.998,19.998,19.998h118.991
				c11.045,0,19.998-8.953,19.998-19.998S503.047,251.998,492.002,251.998z"/>
			<path d="M372.812,338.341l-106.8-96.354c-0.172-0.155-0.347-0.308-0.525-0.457c-12.177-10.239-28.707-12.429-43.138-5.708
				c-14.388,6.698-23.325,20.702-23.325,36.547v149.262c0,22.268,18.715,41.202,40.866,41.348c0.046,0,0.089,0,0.134,0
				c10.983-0.001,19.923-8.868,19.995-19.867c0.072-10.995-8.743-19.975-19.718-20.127c-0.446-0.138-1.28-0.812-1.28-1.353V272.368
				c0-0.074,0.004-0.128,0.008-0.163c0.124-0.111,0.4-0.211,0.495-0.219c0.012,0.005,0.045,0.023,0.094,0.057l105.398,95.09
				c0.009,0.242-0.15,0.671-0.318,0.855h-49.681c-6.875,0-13.269,3.533-16.93,9.353c-3.66,5.822-4.073,13.115-1.094,19.312
				l49.996,103.992c3.443,7.16,10.59,11.338,18.038,11.338c2.906,0,5.858-0.636,8.651-1.979c9.954-4.786,14.144-16.735,9.358-26.689
				l-36.215-75.328h18.499c0.248,0,0.495-0.005,0.743-0.014c16.016-0.596,29.76-10.257,35.869-25.215
				c6.138-15.027,3.074-31.625-7.996-43.318C373.575,339.059,373.2,338.693,372.812,338.341z"/>
			<path d="M302.471,168.748c4.258-10.19-0.552-21.903-10.743-26.162c-10.193-4.258-21.905,0.553-26.163,10.743
				c-4.994,11.952-16.59,19.675-29.544,19.675c-17.644,0-31.998-14.354-31.998-31.997v-19.998h82.994
				c11.045,0,19.998-8.953,19.998-19.998V62.013c0-1.309-0.128-2.616-0.384-3.901c-3.211-16.145-12.041-30.739-24.866-41.094
				C268.988,6.701,252.742,1.018,236.022,1.018c-39.698,0-71.994,32.296-71.994,71.994v67.995c0,39.698,32.297,71.994,71.994,71.994
				C265.156,213.001,291.239,195.631,302.471,168.748z M204.024,73.011c0-17.644,14.354-31.997,31.997-31.997
				c14.957,0,27.46,9.46,30.998,23.213v16.785h-62.995V73.011z"/>
			<path d="M139.029,251.998H20.038c-11.045,0-19.998,8.953-19.998,19.998s8.953,19.998,19.998,19.998h118.991
				c11.045,0,19.998-8.953,19.998-19.998S150.074,251.998,139.029,251.998z"/>
		</g>
	</g>
</g>
<g>
</g>
<g>
</g>
<g>
</g>
<g>
</g>
<g>
</g>
<g>
</g>
<g>
</g>
<g>
</g>
<g>
</g>
<g>
</g>
<g>
</g>
<g>
</g>
<g>
</g>
<g>
</g>
<g>
</g>
</svg>
